<?xml version="1.0" encoding="UTF-8"?><svg id="Layer_2" xmlns="http://www.w3.org/2000/svg" width="649.39" height="720" xmlns:xlink="http://www.w3.org/1999/xlink" viewBox="0 0 649.39 720"><defs><style>.cls-1{fill:url(#linear-gradient-2);}.cls-2{fill:#fff;}.cls-3{fill:#392d51;}.cls-4{fill:url(#linear-gradient-14);}.cls-5{fill:url(#linear-gradient-6);}.cls-6{fill:#3c3c4a;}.cls-7{fill:#fcadb0;}.cls-8{fill:#515166;}.cls-9{fill:url(#linear-gradient-11);}.cls-10{fill:#000002;opacity:.1;}.cls-11{fill:url(#linear-gradient-10);}.cls-12{fill:#bad1e5;}.cls-13{fill:#db9b4f;}.cls-14{fill:#2a1b70;}.cls-15{fill:#061117;}.cls-16{fill:#334d72;}.cls-17{fill:#d9e9f9;}.cls-18{fill:url(#linear-gradient-5);}.cls-19{fill:url(#linear-gradient-7);}.cls-20{fill:url(#linear-gradient-9);}.cls-21{fill:url(#linear-gradient-3);}.cls-22{fill:url(#linear-gradient);}.cls-23{fill:url(#linear-gradient-4);}.cls-24{fill:url(#linear-gradient-8);}.cls-25{fill:url(#linear-gradient-12);}.cls-26{fill:url(#linear-gradient-13);}</style><linearGradient id="linear-gradient" x1="404.24" y1="319.53" x2="457.98" y2="168.23" gradientUnits="userSpaceOnUse"><stop offset="0" stop-color="#3475e1"/><stop offset=".82" stop-color="#3e92ed"/></linearGradient><linearGradient id="linear-gradient-2" x1="352.05" y1="521.81" x2="348.92" y2="454.11" gradientUnits="userSpaceOnUse"><stop offset=".23" stop-color="#392d51"/><stop offset="1" stop-color="#2f1e3b"/></linearGradient><linearGradient id="linear-gradient-3" x1="291.67" y1="485.11" x2="290.11" y2="424.46" xlink:href="#linear-gradient-2"/><linearGradient id="linear-gradient-4" x1="81.75" y1="352.21" x2="536.09" y2="352.21" gradientTransform="translate(2.4)" gradientUnits="userSpaceOnUse"><stop offset=".54" stop-color="#ba7d3a"/><stop offset=".62" stop-color="#ae642b"/></linearGradient><linearGradient id="linear-gradient-5" x1="339.61" y1="296.58" x2="393.35" y2="145.27" xlink:href="#linear-gradient"/><linearGradient id="linear-gradient-6" x1="282.26" y1="217.75" x2="264.73" y2="217.75" gradientTransform="translate(658.76) rotate(-180) scale(1 -1)" gradientUnits="userSpaceOnUse"><stop offset="0" stop-color="#000" stop-opacity=".05"/><stop offset="1" stop-color="#000" stop-opacity=".15"/></linearGradient><linearGradient id="linear-gradient-7" x1="200" y1="146.35" x2="229.41" y2="146.35" xlink:href="#linear-gradient-6"/><linearGradient id="linear-gradient-8" x1="323.25" y1="260.26" x2="397.7" y2="260.26" gradientTransform="translate(74.58)" xlink:href="#linear-gradient-6"/><linearGradient id="linear-gradient-9" x1="319.47" y1="255.59" x2="413.97" y2="255.59" gradientTransform="translate(74.58)" xlink:href="#linear-gradient-6"/><linearGradient id="linear-gradient-10" x1="423.98" y1="326.54" x2="477.72" y2="175.24" xlink:href="#linear-gradient"/><linearGradient id="linear-gradient-11" x1="249.02" y1="308.84" x2="266.07" y2="308.84" xlink:href="#linear-gradient-6"/><linearGradient id="linear-gradient-12" x1="328.36" y1="264.82" x2="342.6" y2="264.82" xlink:href="#linear-gradient-6"/><linearGradient id="linear-gradient-13" x1="246.76" y1="213.66" x2="306.24" y2="381.14" gradientUnits="userSpaceOnUse"><stop offset="0" stop-color="#fff"/><stop offset="1" stop-color="#e0edfc"/></linearGradient><linearGradient id="linear-gradient-14" x1="260.61" y1="296.91" x2="270.52" y2="377.78" xlink:href="#linear-gradient-13"/></defs><path class="cls-8" d="m372.75,288.12c6-26.37,22.52-96.17,36.66-130.39l-3.82-2.68,1.32-10.24,3.29-1.42-1.6-1.49,13.88-3.74c19.34-6.23,86.79,15.84,96.03,48.42,7.69,27.12-26.29,123.69-38.98,158.09-1.35,3.65-4.36,6.13-7.8,7l-14.47,3.84,2.94-6.79-80.52-45.03c-5.51-3.08-8.33-9.42-6.93-15.57Z"/><path class="cls-6" d="m448.99,354.51c6.02,3.37,13.62.57,16.01-5.91,12.68-34.4,46.67-130.97,38.98-158.09-9.41-33.18-79.24-55.47-97.07-48.04-14.99,6.25-40.84,115.08-48.69,149.57-1.4,6.16,1.42,12.49,6.93,15.57l83.84,46.89Z"/><path class="cls-3" d="m468.25,307.03s-2.87,17.87-10.17,34.04-46.96,37.04-58.7,34.7-66.26-24.78-54-48.78c12.26-24,41.48-39.65,41.48-39.65l81.39,19.7Z"/><path class="cls-22" d="m395.99,316.31c1.82,1,3.71,2.04,5.63,3.14,1.62.93,3.33,1.76,5.14,2.52,19.55,8.3,42.05,7.37,50.66,2.41,3.51-2.02,10.13-6.8,11.48-18.52.64-5.51,1.96-20.95,4.04-31.64,7.3-37.77,17.43-73.29,15.33-85.04-.18-.99-.45-1.83-.8-2.46-4.63-8.25-28.73-24.27-28.73-24.27-13.54-7.67-28.57-10.32-38.46-11.8-9.91-1.49-22.82,8-24.77,25.76-.48,4.4-.98,8.62-1.48,12.65-2.41,19.22-5.06,34.31-7.7,46.35-7.44,33.9-14.79,43.64-16.4,53.34-2.09,12.46,9.73,18.53,26.06,27.56Z"/><path class="cls-6" d="m391.75,452.9l-3.56,190.27c-.06,3.33-2.81,5.98-6.14,5.92-3.25-.06-5.86-2.7-5.92-5.92l-3.38-190.28c-.09-5.25,4.08-9.58,9.33-9.67,5.37-.11,9.78,4.31,9.67,9.68h0Z"/><path class="cls-6" d="m134.14,303.57l-3.56,190.27c-.06,3.33-2.81,5.98-6.14,5.92-3.25-.06-5.86-2.7-5.92-5.92l-3.38-190.28c-.09-5.25,4.08-9.58,9.33-9.67,5.37-.11,9.78,4.31,9.67,9.68h0Z"/><path class="cls-6" d="m501.92,386.2l52.09,159.4c1.03,3.17-.69,6.57-3.86,7.61-3.08,1.01-6.4-.62-7.52-3.62l-58.64-157.11c-1.83-4.92.66-10.39,5.58-12.22,5.04-1.9,10.69.83,12.35,5.95h0Z"/><path class="cls-10" d="m372.32,657.16L101.8,500.97c-3.66-2.11-3.2-5.8,1.02-8.24l175.16-101.13c4.22-2.44,10.61-2.7,14.27-.59l270.52,156.18c3.66,2.11,3.2,5.8-1.02,8.24l-175.16,101.13c-4.22,2.44-10.61,2.7-14.27.59Z"/><path class="cls-15" d="m335.52,513.84s-29.89,27.16-30.71,35.53c-.82,8.38,6.97,14.83,16.2,13.8,9.24-1.03,38.32-19.35,40.59-24.89s-4.08-25.25-4.08-25.25l-22,.8Z"/><path class="cls-1" d="m367.72,433.3l-8.79,80.84s-2.59,7.37-12.38,7.65c-9.79.29-12.96-6.68-12.96-6.68l-5.32-80.51,39.46-1.31Z"/><path class="cls-15" d="m269.29,467.65s-33.07,23.38-34.74,31.63c-1.67,8.25,5.41,15.47,14.71,15.39,9.29-.08,40.1-15.33,42.92-20.61,2.82-5.27-1.48-25.53-1.48-25.53l-21.41-.87Z"/><path class="cls-21" d="m313.44,394.55l-21.06,78.55s-3.69,6.88-13.41,5.67-11.78-8.59-11.78-8.59l7.06-80.37,39.19,4.74Z"/><path class="cls-23" d="m538.49,372.47h-12.99s-259.99-150.11-259.99-150.11c-3.66-2.11-10.04-1.85-14.27.59l-157.57,91.21-.92-1.18-8.59-.36v9.66h0c0,1.35.8,2.63,2.46,3.59l270.52,156.18c3.66,2.11,10.04,1.85,14.27-.59l163.59-94.68c2.35-1.36,3.53-3.1,3.49-4.75h0s0-9.56,0-9.56Z"/><path class="cls-13" d="m357.14,472.38L86.62,316.19c-3.66-2.11-3.2-5.8,1.02-8.24l163.59-94.68c4.22-2.44,10.61-2.7,14.27-.59l270.52,156.18c3.66,2.11,3.2,5.8-1.02,8.24l-163.59,94.68c-4.22,2.44-10.61,2.7-14.27.59Z"/><path class="cls-10" d="m387.95,362.91l-105.61-61.18c-1.21-.71-1.21-1.84,0-2.54l40.29-23.26c1.21-.7,3.18-.7,4.39,0l106.73,60.59c1.21.71,1.21,1.84,0,2.54l-41.4,23.85c-1.21.7-3.18.7-4.38-.01Z"/><path class="cls-17" d="m431.97,333.5h-1.68s-103.28-59.82-103.28-59.82c-1.21-.71-3.17-.71-4.39,0l-38.94,22.48v-.58l-2.25,1.25v1.34s0,.04,0,.07v.03h0c.03.44.32.87.89,1.2l105.61,61.18c1.21.71,3.17.71,4.38,0l40.29-23.26c.58-.33.87-.77.9-1.2h0c0-.05,0-.09,0-.12v-1.5s-1.56-1.08-1.56-1.08Z"/><path class="cls-2" d="m387.95,359.24l-105.61-61.18c-1.21-.71-1.21-1.84,0-2.54l40.29-23.26c1.21-.7,3.18-.7,4.39,0l105.61,61.18c1.21.71,1.21,1.84,0,2.54l-40.29,23.26c-1.21.7-3.18.7-4.38-.01Z"/><path class="cls-16" d="m329.92,279.68l-3.79-2.17c-1.36-.78-3.57-.78-4.93,0,0,0-.16.09-.36.2-.2.11-.14.33.13.49l5.74,3.32c.27.16.72.16.99,0l2.22-1.29c.27-.16.27-.41,0-.57Z"/><path class="cls-16" d="m333.45,296.25l-5.63,3.25c-.27.16-.72.16-.99,0l-5.69-3.28c-.27-.15-.27-.41,0-.57l5.63-3.25c.28-.15.72-.15.99,0l5.69,3.29c.27.15.27.4,0,.56Z"/><path class="cls-16" d="m361.3,298.21l-2.36,1.36c-.27.15-.72.15-.99,0l-5.68-3.28c-.27-.16-.27-.41,0-.57l2.32-1.35c.27-.15.72-.15.99,0l5.71,3.27c.27.15.27.41,0,.56Z"/><path class="cls-16" d="m325.69,300.72l-5.63,3.26c-.27.15-.71.15-.98,0l-5.68-3.29c-.28-.15-.28-.42,0-.57l5.62-3.25c.27-.15.71-.15.98,0l5.69,3.29c.27.15.27.41,0,.56Z"/><path class="cls-16" d="m384.84,311.68l-2.46,1.42c-.27.16-.71.16-.99,0l-5.69-3.28c-.27-.15-.27-.41,0-.57l2.43-1.4c.27-.15.71-.15.99,0l5.71,3.27c.27.15.28.41,0,.56Z"/><path class="cls-16" d="m376.99,307.19l-2.42,1.4c-.28.16-.71.16-.98,0l-5.69-3.28c-.27-.16-.27-.41,0-.57l2.4-1.38c.27-.15.72-.15.99,0l5.71,3.27c.27.16.27.41,0,.57Z"/><path class="cls-16" d="m333.53,305.25l-5.62,3.26c-.27.15-.72.15-.99,0l-5.73-3.3c-.27-.16-.27-.42,0-.57l5.63-3.25c.27-.16.71-.16.99,0l5.72,3.3c.28.16.28.41,0,.57Z"/><path class="cls-16" d="m341.31,309.75l-5.62,3.24c-.27.16-.71.16-.99,0l-5.66-3.26c-.27-.15-.27-.41,0-.57l5.62-3.26c.27-.16.72-.16.99,0l5.65,3.27c.28.16.28.42,0,.57Z"/><path class="cls-16" d="m353.47,293.73l-2.33,1.34c-.27.16-.71.16-.98,0l-5.7-3.29c-.27-.16-.27-.41,0-.57l2.29-1.32c.27-.16.71-.16.99,0l5.72,3.28c.28.16.28.41,0,.57Z"/><path class="cls-16" d="m337.77,284.74l-2.26,1.3c-.28.16-.72.16-.99,0l-5.68-3.28c-.28-.16-.28-.41,0-.57l2.22-1.28c.28-.15.72-.16.99,0l5.71,3.27c.27.15.27.4,0,.57Z"/><path class="cls-16" d="m356.82,300.79l-5.62,3.25c-.27.15-.71.15-.99,0l-5.67-3.27c-.28-.16-.28-.41,0-.57l5.62-3.26c.27-.15.71-.15.99,0l5.67,3.28c.28.16.28.41,0,.57Z"/><path class="cls-16" d="m349.02,296.29l-5.62,3.25c-.28.16-.72.16-.99,0l-5.71-3.3c-.28-.16-.28-.41,0-.56l5.62-3.25c.28-.16.72-.16.99,0l5.7,3.29c.27.16.27.41,0,.57Z"/><path class="cls-16" d="m345.61,289.23l-2.29,1.32c-.27.16-.71.16-.99,0l-5.68-3.28c-.27-.16-.27-.41,0-.57l2.26-1.3c.27-.16.71-.16.98,0l5.72,3.27c.27.15.27.4,0,.56Z"/><path class="cls-16" d="m341.2,291.78l-5.64,3.25c-.27.16-.71.16-.98,0l-5.69-3.28c-.27-.16-.27-.42,0-.57l5.63-3.25c.27-.16.71-.16.99,0l5.69,3.28c.27.16.27.41,0,.57Z"/><path class="cls-16" d="m369.15,302.7l-2.39,1.38c-.28.15-.72.15-.99,0l-5.69-3.28c-.27-.16-.27-.41,0-.57l2.36-1.37c.27-.15.72-.15.99,0l5.72,3.27c.27.16.27.41,0,.56Z"/><path class="cls-16" d="m422.57,336.3l2.24-1.3c.13-.07.24-.14.35-.22.17-.14.17-.42,0-.56-.11-.08-.22-.15-.35-.23l-6.45-3.69c-.27-.15-.71-.15-.99,0l-2.6,1.5c-.27.17-.27.42,0,.57l6.82,3.94c.28.16.71.16.99,0Z"/><path class="cls-16" d="m388.18,336.81l-5.62,3.24c-.28.16-.72.16-.99,0l-5.69-3.28c-.27-.16-.27-.41,0-.56l5.63-3.25c.28-.16.71-.16.99,0l5.68,3.28c.28.16.28.41,0,.57Z"/><path class="cls-16" d="m380.37,332.3l-5.63,3.25c-.27.15-.71.15-.98,0l-5.69-3.28c-.27-.16-.27-.41,0-.57l5.63-3.25c.27-.16.71-.16.98,0l5.69,3.29c.27.16.27.41,0,.57Z"/><path class="cls-16" d="m349.13,314.25l-5.63,3.25c-.27.16-.71.16-.99,0l-5.68-3.28c-.28-.16-.28-.41,0-.57l5.62-3.25c.28-.16.72-.16.98,0l5.69,3.28c.27.16.27.41,0,.57Z"/><path class="cls-16" d="m395.94,332.33l-5.63,3.25c-.27.15-.71.15-.99,0l-5.69-3.28c-.27-.16-.27-.41,0-.57l5.63-3.25c.28-.15.72-.15.99,0l5.69,3.29c.27.15.27.41,0,.57Z"/><path class="cls-16" d="m413.62,331.14l2.6-1.5c.27-.16.27-.41,0-.57l-5.72-3.27c-.27-.16-.71-.16-.98,0l-2.56,1.48c-.27.16-.27.41,0,.57l5.69,3.28c.28.15.71.15.98,0Z"/><path class="cls-16" d="m333.39,287.27l-5.63,3.25c-.27.16-.71.16-.99,0l-5.69-3.28c-.28-.16-.28-.41,0-.57l5.62-3.25c.27-.16.72-.16.99,0l5.69,3.28c.27.16.27.41,0,.57Z"/><path class="cls-16" d="m400.53,320.66l-2.53,1.46c-.27.16-.71.16-.98,0l-5.69-3.28c-.27-.16-.27-.41,0-.57l2.5-1.44c.27-.16.71-.16.99,0l5.71,3.27c.28.16.28.41,0,.57Z"/><path class="cls-16" d="m372.56,327.78l-5.63,3.25c-.27.16-.72.16-1,0l-5.68-3.28c-.27-.16-.27-.42,0-.57l5.62-3.25c.28-.16.72-.16.99,0l5.69,3.28c.26.16.26.42,0,.57Z"/><path class="cls-16" d="m392.68,316.17l-2.49,1.44c-.27.16-.71.16-.98,0l-5.69-3.28c-.27-.16-.27-.42,0-.57l2.46-1.42c.27-.16.71-.16.99,0l5.71,3.27c.28.16.28.42,0,.57Z"/><path class="cls-16" d="m356.94,318.76l-5.63,3.25c-.27.16-.71.16-.99,0l-5.68-3.28c-.27-.15-.27-.41,0-.57l5.62-3.25c.28-.16.72-.16.98,0l5.69,3.29c.28.16.28.41,0,.57Z"/><path class="cls-16" d="m408.38,325.15l-2.57,1.48c-.27.16-.71.16-.98,0l-5.69-3.28c-.28-.16-.28-.41,0-.57l2.53-1.46c.27-.16.71-.16.98,0l5.72,3.27c.27.16.27.41,0,.57Z"/><path class="cls-16" d="m364.75,323.28l-5.63,3.25c-.27.15-.71.15-.98,0l-5.69-3.29c-.27-.16-.27-.41,0-.57l5.63-3.25c.27-.16.71-.16.99,0l5.69,3.28c.27.16.27.41,0,.57Z"/><path class="cls-16" d="m403.69,327.85l-5.62,3.25c-.27.15-.71.15-.99,0l-5.69-3.29c-.27-.16-.27-.42,0-.57l5.63-3.25c.27-.15.71-.15.98,0l5.69,3.29c.27.16.27.41,0,.57Z"/><path class="cls-16" d="m380.43,341.28l-6.44,3.72c-.27.16-.71.16-.99,0l-5.68-3.28c-.27-.16-.27-.41,0-.57l6.44-3.71c.27-.16.71-.16.98,0l5.69,3.28c.27.16.27.42,0,.57Z"/><path class="cls-16" d="m356.88,309.78l-5.64,3.25c-.27.15-.71.15-.98,0l-5.69-3.28c-.27-.16-.27-.41,0-.57l5.63-3.24c.28-.16.72-.16.99,0l5.69,3.28c.27.16.27.41,0,.58Z"/><path class="cls-16" d="m381.57,341.94l-6.44,3.72c-.27.16-.27.41,0,.57l5.68,3.29c.27.16.71.16.99,0l6.45-3.73c.27-.16.27-.42,0-.57l-5.69-3.28c-.28-.15-.72-.15-.99,0Z"/><path class="cls-16" d="m372.62,336.77l-6.44,3.72c-.27.16-.71.16-.99,0l-5.68-3.29c-.27-.16-.27-.42,0-.57l6.43-3.71c.28-.16.72-.16,1,0l5.68,3.29c.27.15.27.41,0,.56Z"/><path class="cls-16" d="m364.69,314.29l-5.63,3.25c-.27.16-.71.16-.99,0l-5.69-3.29c-.27-.16-.27-.41,0-.57l5.63-3.25c.27-.16.71-.16.99,0l5.68,3.29c.28.15.28.41,0,.57Z"/><path class="cls-16" d="m349.07,305.27l-5.64,3.25c-.27.16-.71.16-.98,0l-5.66-3.27c-.27-.15-.27-.4,0-.57l5.62-3.25c.27-.17.72-.17.99,0l5.67,3.27c.27.16.27.42,0,.57Z"/><path class="cls-16" d="m382.92,350.75l4.91,2.84c1.36.78,3.56.78,4.93,0l4.48-2.6c.27-.16.27-.41,0-.57l-6.87-3.96c-.27-.15-.71-.15-.99,0l-6.46,3.73c-.26.15-.26.41,0,.57Z"/><path class="cls-16" d="m383.69,341.28l14.68,8.48c.27.16.71.16.98,0l5.62-3.26c.28-.15.28-.41,0-.56l-14.67-8.47c-.27-.16-.71-.16-.99,0l-5.63,3.24c-.27.16-.27.42,0,.57Z"/><path class="cls-16" d="m399.26,341.32l6.85,3.96c.27.16.71.16.98,0l5.62-3.26c.27-.16.27-.41,0-.57l-6.84-3.95c-.27-.16-.71-.16-.98,0l-5.63,3.25c-.28.16-.28.41,0,.57Z"/><path class="cls-16" d="m404.83,328.51l-5.63,3.25c-.28.15-.28.41,0,.57l14.65,8.46c.27.16.71.16.99,0l5.61-3.26c.28-.16.27-.41,0-.57l-14.63-8.45c-.27-.16-.71-.16-.98,0Z"/><path class="cls-16" d="m341.28,300.78l-5.62,3.25c-.27.16-.72.16-.99,0l-5.72-3.31c-.27-.15-.27-.41,0-.56l5.63-3.25c.27-.16.71-.16.98,0l5.72,3.3c.27.16.27.41,0,.57Z"/><path class="cls-16" d="m398.12,340.09l5.62-3.24c.28-.16.28-.42,0-.57l-5.68-3.28c-.27-.16-.71-.16-.99,0l-5.63,3.25c-.27.16-.27.41,0,.57l5.69,3.28c.27.16.72.16.99,0Z"/><path class="cls-16" d="m372.5,318.8l-5.63,3.25c-.27.16-.71.16-.99,0l-5.68-3.29c-.27-.15-.27-.41,0-.57l5.63-3.25c.27-.16.71-.16.98,0l5.69,3.28c.27.16.27.41,0,.57Z"/><path class="cls-16" d="m395.88,323.34l-5.63,3.25c-.27.16-.71.16-.99,0l-5.69-3.28c-.27-.16-.27-.41,0-.57l5.63-3.25c.27-.15.72-.15.98,0l5.69,3.29c.26.16.26.41,0,.57Z"/><path class="cls-16" d="m380.26,314.33l-5.63,3.25c-.27.16-.71.16-.99,0l-5.69-3.28c-.27-.16-.27-.41,0-.57l5.63-3.26c.27-.16.71-.16.98,0l5.69,3.28c.27.16.27.41,0,.57Z"/><path class="cls-16" d="m364.81,332.26l-6.43,3.71c-.27.15-.71.15-.98,0l-44.7-25.86c-.27-.16-.27-.41,0-.57l6.38-3.68c.27-.16.71-.16.98,0l44.75,25.83c.27.16.27.41,0,.57Z"/><path class="cls-16" d="m317.88,295.65l-13.61-7.86c-.27-.16-.71-.16-.99,0l-5.65,3.23c-.28.17-.28.42,0,.57l13.63,7.87c.27.16.72.16.98,0l5.63-3.25c.27-.15.27-.41,0-.57Z"/><path class="cls-16" d="m325.64,291.17l-13.59-7.85c-.27-.15-.71-.15-.98,0l-5.65,3.24c-.27.16-.27.41,0,.57l13.61,7.85c.27.16.71.16.98,0l5.63-3.25c.28-.16.28-.42,0-.57Z"/><path class="cls-16" d="m372.45,309.81l-5.64,3.25c-.27.16-.71.16-.98,0l-5.69-3.28c-.27-.16-.27-.41,0-.58l5.63-3.25c.27-.16.71-.16.99,0l5.69,3.28c.27.16.27.42,0,.57Z"/><path class="cls-16" d="m325.58,282.18l-5.75-3.31c-.27-.16-.71-.16-.99,0l-5.65,3.23c-.27.16-.27.41,0,.57l5.77,3.34c.28.15.72.15.99,0l5.63-3.25c.26-.16.26-.41,0-.57Z"/><path class="cls-16" d="m388.07,318.84l-5.63,3.25c-.28.16-.72.16-.99,0l-5.69-3.28c-.27-.16-.27-.41,0-.57l5.62-3.25c.28-.16.72-.16.99,0l5.7,3.29c.27.15.27.41,0,.57Z"/><path class="cls-16" d="m317.94,305.2l-6.38,3.68c-.27.16-.71.16-.98,0l-5.68-3.28c-.28-.16-.28-.41,0-.57l6.37-3.68c.27-.16.72-.16.98,0l5.69,3.28c.27.15.27.41,0,.57Z"/><path class="cls-16" d="m380.31,323.31l-5.63,3.25c-.27.15-.71.15-.98,0l-5.68-3.29c-.28-.16-.28-.41,0-.57l5.62-3.25c.27-.16.71-.16.99,0l5.69,3.28c.27.16.27.41,0,.57Z"/><path class="cls-16" d="m388.13,327.82l-5.63,3.25c-.28.16-.71.16-.99,0l-5.68-3.29c-.27-.15-.27-.4,0-.57l5.63-3.25c.27-.16.71-.16.99,0l5.69,3.28c.27.16.27.41,0,.57Z"/><path class="cls-16" d="m295.51,292.25l-5.99,3.44c-.13.07-.24.15-.34.22-.18.14-.18.42-.01.56.11.08.22.16.35.22l5.45,3.16c.27.15.71.15.99,0l6.36-3.68c.27-.16.27-.41,0-.57l-5.82-3.36c-.27-.15-.71-.16-.99,0Z"/><path class="cls-16" d="m364.64,305.31l-5.63,3.25c-.27.16-.71.16-.99,0l-5.68-3.28c-.28-.15-.28-.41,0-.57l5.63-3.25c.27-.16.72-.16.99,0l5.69,3.28c.27.16.27.41,0,.57Z"/><path class="cls-16" d="m303.46,296.84l-6.36,3.68c-.28.15-.28.42,0,.57l5.67,3.28c.27.17.71.17.99,0l6.37-3.68c.27-.15.27-.42,0-.57l-5.69-3.28c-.27-.16-.71-.16-.98,0Z"/><path class="cls-18" d="m321.06,272.56c2.38,1.68,5.03,1.9,7.55,1.51,3.41-.55,6.56-2.24,8.46-2.99,2.84-1.13,29.01-17.05,39.43-24.63,1.69-1.24,2.96-2.24,3.65-2.94,4.97-4.96,30.05-43.75,34.01-53.16,1.56-3.7,2.31-10.68,2.63-17.78.5-10.95.02-22.17.02-22.17,0,0-12.63-1.48-22.29,9.65-9.66,11.15-34.67,68.84-34.67,68.84,0,0-39.24,23.2-42.78,27.69,0,.01-.01.01-.01.01-.12.14-.19.27-.23.37-1.16,3.3-1.39,11.64,4.23,15.6Z"/><path class="cls-5" d="m376.5,246.45c1.69-1.24,2.96-2.24,3.65-2.94,1.15-1.15,3.38-4.11,6.18-8.1,2.64-12.04,5.29-27.13,7.7-46.35-2.78,5.16-5.01,11.07-6.28,16.98-3.66,16.99-7.48,30.12-11.25,40.41Z"/><path class="cls-7" d="m462.7,165.25s-12.71,16.84-28.22,12.21c-9.47-2.82-10.07-20.3-8.43-21.62.71-.57,2.03-.92,3.3-1.86,1.71-1.24,3.38-3.52,3.47-8.71.1-5.83,13.54-9.15,23.11-10.77,5.3-.9,9.42-1.28,9.42-1.28,0,0-3.96,6.59-4.96,17-.99,10.4,2.32,15.03,2.32,15.03Z"/><path class="cls-19" d="m458.76,138.4c-3.51,13.77-18.27,17-29.4,15.58,1.71-1.24,3.38-3.52,3.47-8.71.1-5.83,16.37-5.26,25.94-6.88Z"/><path class="cls-7" d="m413.43,95c-1.17,13.19-3.82,42.32,11.22,51.65,15.04,9.34,52.04-6.37,52.82-30.23.78-23.86-6.48-44.86-27.75-46.16-21.26-1.3-35.33,14.02-36.29,24.74Z"/><path class="cls-14" d="m454.3,108.04l-.86,14.69,4.84.17s3.62-11.68,7.43-11.41c7.43.52,1.21,22.47-3.98,30.08,0,0,11.06-4.49,16.6-22.82,4.87-16.14,2.07-37.86-6.05-42.7,0,0-6.68-12-28.35-14.35s-39.19,10.14-37,30.5c2.52,23.41,47.38,15.84,47.38,15.84Z"/><path class="cls-24" d="m461.22,220.72s-7.98,32.99-13.21,42.92c-3.3,6.27-46.88,29.39-50.02,34.01s39.29.33,39.29.33l26.41-12.38s8.58-50.85,8.58-52.33-11.06-12.55-11.06-12.55Z"/><path class="cls-20" d="m472.94,274.21c-2.08,10.69-3.06,18.12-3.7,23.63-17.83,9.38-61.14,24.16-61.14,24.16,0,0-.52.03-1.34-.04-2.54-.16-8.06-1.06-10.77-5.66-.46-.8-.84-1.7-1.1-2.72-2.3-8.92.67-11.23,2.65-12.88,1.99-1.65,57.61-28.06,57.61-28.06,0,0,4.8-46.22,10.9-61.74,5.44-13.83,19.28-20.45,22.23-21.73,2.1,11.76-8.02,47.27-15.33,85.04Z"/><path class="cls-11" d="m393.53,311.36c2.31,8.91,13.21,8.42,13.21,8.42h.01c.95-.33,61.94-21.19,68.17-28.89,6.27-7.76,17.66-55.8,19.48-72.97,1.81-17.17-6.94-31.2-6.94-31.2,0,0-16.67,6.44-22.78,21.96-6.11,15.51-10.89,61.74-10.89,61.74,0,0-55.64,26.41-57.62,28.06-.05.04-.09.08-.14.12h-.01s0,.01-.01.01c-1.97,1.65-4.73,4.08-2.48,12.75Z"/><path class="cls-9" d="m393.53,311.36c1.27,4.89,5.12,6.95,8.34,7.8,2.65.72,4.87.62,4.87.62h.01c2.3-1.83,3.08-4.23,2.98-6.73-.15-4.63-3.29-9.6-5.37-11.96-.91-1.02-1.79-1.74-2.61-2.23-3.18-1.9-5.54-.38-5.72-.26h-.01s0,.01-.01.01c-1.25,1.05-2.82,2.41-3.22,5.49-.23,1.76-.08,4.1.74,7.26Z"/><path class="cls-25" d="m321.06,272.56c2.38,1.68,5.03,1.9,7.55,1.51,3.83-4.31.75-11.67-2.05-14.81-4.16-4.69-8.02-4.43-9.49-2.68,0,.01-.01.01-.01.01-.12.14-.19.27-.23.37-1.16,3.3-1.39,11.64,4.23,15.6Z"/><path class="cls-17" d="m346.01,268.52l-136.58-78.85c-1.4-.81-2.66-.84-3.54-.24l-2.15,1.31s-1.04,5.1-.25,6.11c.25.31.68.44,1.14.48v113.48c0,3.05,2.15,6.77,4.8,8.3l131.39,75.86,3.36.83.31.08,2.15,3.71s.2-.1.45-.24l.18.24s1.62-.87,2.16-1.16c.85-.45,1.37-1.51,1.37-3.23v-118.37c0-3.06-2.15-6.77-4.79-8.3Z"/><path class="cls-26" d="m348.75,382.69v-104.6c0-3.06-2.15-6.77-4.79-8.3l-136.58-78.85c-2.65-1.53-4.79-.29-4.79,2.76v116.17s.01.04.01.06v2.14c0,3.05,2.13,6.78,4.79,8.3l59.77,34.51,12.9,7.45,18.68,10.77,2.09,1.21,43.12,24.91c2.66,1.53,4.81.29,4.81-2.76v-13.76s0,0,0,0Z"/><path class="cls-17" d="m300.82,374.31l-13.4,5.07c-2.38.91-4.89,1.24-7.36,1-.87-.06-1.73-.2-2.58-.42-1.47-.36-2.91-.93-4.25-1.69l-15.6-8.86c-2.61-1.5-4.24-4.28-4.24-7.3v-66.03c0-1.61,1.75-2.61,3.14-1.81l20.55,11.84.9.53c1.28.76,2.09,2.13,2.09,3.62v52.06s19.68,11.35,19.68,11.35l1.08.63Z"/><path class="cls-4" d="m277.47,310.18v69.79c-1.47-.36-2.91-.93-4.25-1.69l-15.6-8.86c-2.61-1.5-4.24-4.28-4.24-7.3v-63.76c0-1.61,1.75-2.61,3.14-1.81l20.55,11.84c.26.54.4,1.14.4,1.78Z"/><path class="cls-12" d="m298.73,373.09l-11.31,4.29c-.74.28-1.49.5-2.24.67-2.62.59-5.12-1.41-5.12-4.09v-11.64s18.68,10.77,18.68,10.77Z"/><path class="cls-7" d="m370.8,323.6c.59,1.93,7.3,6.52,11.98,6.61,3.5.07,7.71-2.06,12.35-5.04,1.52-.97,4.84-3.79,6.74-6.01.52-.61.94-1.17,1.18-1.64.51-1,3.53-2.8,6.68-4.47-.15-4.63-3.29-9.6-5.37-11.96-.91-1.02-1.79-1.74-2.61-2.23l-8.31,5.26s-.24-.02-.65-.02c-1.59-.04-5.81.03-9.15,1.42-4.21,1.75-6.42,4.2-5.31,5.71.54.75,2.8.69,3.28.64.48-.04-3.89,1.65-6.73,3.68-2.93,2.1-5,5.03-4.08,8.05Z"/></svg>